<?xml version="1.0" encoding="UTF-8"?>
<svg width="250px" height="30px" viewBox="0 0 231 30" version="1.1" xmlns="http://www.w3.org/2000/svg" xmlns:xlink="http://www.w3.org/1999/xlink">
    <!-- Generator: Sketch 52.5 (67469) - http://www.bohemiancoding.com/sketch -->
    <title>Group 17</title>
    <desc>Created with Sketch.</desc>
    <g id="Page-1" stroke="none" stroke-width="1" fill="none" fill-rule="evenodd">
        <g id="Group-17">
            <text id="Developers" font-family="TitilliumWeb-Bold, Titillium Web" font-size="16" font-weight="bold" fill="#24AE8F">
                <tspan x="153.87931" y="20.4827586">Developers</tspan>
            </text>
            <rect id="Rectangle" fill-opacity="0.1" fill="#FFFFFF" x="139" y="3" width="1" height="24"></rect>
            <g id="KuMEX（深色底）">
                <g id="Group" transform="translate(56.592292, 5.476673)" fill="#FFFFFF">
                    <path d="M64.3837728,6.73083164 L60.7868763,0.925740365 C60.7332049,0.839208925 60.6306085,0.80653144 60.4761663,0.80653144 L57.6843408,0.80653144 C57.5580122,0.80653144 57.5521704,0.89306288 57.5948884,0.961703854 L62.7767343,9.32421907 L57.595071,17.6863692 C57.5523529,17.7551927 57.5581947,17.8415416 57.6845233,17.8415416 L60.4763489,17.8415416 C60.6307911,17.8415416 60.7333874,17.8090467 60.7870588,17.7225152 L71.1730223,0.961703854 C71.2155578,0.89306288 71.209716,0.80653144 71.0833874,0.80653144 L68.2915619,0.80653144 C68.1371197,0.80653144 68.0345233,0.839208925 67.9810345,0.925740365 L64.3837728,6.73083164 Z M65.5581542,13.8127181 L67.9810345,17.7225152 C68.0345233,17.8090467 68.1376673,17.8415416 68.2915619,17.8415416 L71.0833874,17.8415416 C71.209716,17.8415416 71.2155578,17.7551927 71.1730223,17.6863692 L67.2190467,11.3064097 C67.1520487,11.1981542 67.05,11.2039959 66.9890264,11.3016633 L65.5581542,13.5947465 C65.5126978,13.6674037 65.5147059,13.7424341 65.5581542,13.8127181 Z" id="_236456520" fill-rule="nonzero"></path>
                    <path d="M55.5040771,17.8415416 C55.5812982,17.8415416 55.6384381,17.7800203 55.6384381,17.7073631 C55.6384381,16.996856 55.6384381,16.0859026 55.6384381,15.375213 C55.6384381,15.3027383 55.5811156,15.241217 55.5040771,15.241217 L46.5367546,15.2410345 C46.241927,15.2410345 46.0082556,15.0206897 46.0082556,14.7119878 L46.0082556,11.0610548 C46.0082556,10.7523529 46.2408316,10.5320081 46.5367546,10.5320081 L53.5635091,10.5320081 C53.6407302,10.5320081 53.6980527,10.4704868 53.6980527,10.3978296 C53.6980527,9.72091278 53.6980527,8.86892495 53.6980527,8.19200811 C53.6980527,8.11953347 53.6392698,8.05782961 53.5635091,8.05782961 L46.5367546,8.05782961 C46.2417444,8.05782961 46.0082556,7.83748479 46.0082556,7.52878296 L46.0082556,5.2579716 C46.0082556,5.1853144 45.9445436,5.1237931 45.8673225,5.1237931 C45.1650304,5.1237931 44.4700406,5.1237931 43.767931,5.1237931 C43.6907099,5.1237931 43.6333874,5.18622718 43.6333874,5.2579716 L43.6333874,17.7073631 C43.6333874,17.7791075 43.6907099,17.8415416 43.767931,17.8415416 L55.5040771,17.8415416 Z M55.4787018,3.40703854 C55.5559229,3.40703854 55.6132454,3.34551724 55.6132454,3.27286004 L55.6132454,0.940709939 C55.6132454,0.868235294 55.5555578,0.80653144 55.4787018,0.80653144 L43.767931,0.80653144 C43.6908925,0.80653144 43.6333874,0.868600406 43.6333874,0.940709939 L43.6333874,3.27286004 C43.6333874,3.34515213 43.6907099,3.40703854 43.767931,3.40703854 L55.4787018,3.40703854 Z" id="_236456472" fill-rule="nonzero"></path>
                    <path d="M19.1292901,15.2762677 C17.8221907,15.2762677 16.5532454,14.2393509 16.5532454,12.9110751 L16.5532454,5.96427992 C16.5532454,5.89180527 16.4957404,5.83010142 16.4187018,5.83010142 L14.0421907,5.83010142 C13.9651521,5.83010142 13.9076471,5.89198783 13.9076471,5.96427992 L13.9076471,12.9110751 C13.9076471,15.6815416 16.3531643,17.8417241 19.1292901,17.8417241 C21.9054158,17.8417241 24.3511156,15.6817241 24.3511156,12.9110751 L24.3511156,5.96427992 C24.3511156,5.89198783 24.2936105,5.83010142 24.216572,5.83010142 L21.8398783,5.83010142 C21.7630223,5.83010142 21.7053347,5.89198783 21.7053347,5.96427992 L21.7053347,12.9110751 C21.7053347,14.2391684 20.436572,15.2762677 19.1292901,15.2762677 Z" id="_236457096"></path>
                    <path d="M33.8244828,11.8265112 C33.6766126,11.8265112 33.4484178,11.7659026 33.3511156,11.6289858 L30.0154564,6.94679513 C29.7728398,6.60614604 29.3870994,6.72663286 29.3870994,7.2268357 L29.3870994,17.7073631 C29.3870994,17.7796552 29.3297769,17.8415416 29.2527383,17.8415416 L26.8431846,17.8415416 C26.7659635,17.8415416 26.7088235,17.7796552 26.7088235,17.7073631 L26.7088235,0.940709939 C26.7088235,0.868600406 26.7663286,0.80653144 26.8431846,0.80653144 L28.8925558,0.80653144 C28.952069,0.80653144 28.9905882,0.815841785 29.0533874,0.904016227 L33.4856592,7.12058824 C33.6683976,7.37689655 33.7379513,7.42162272 33.9500811,7.42308316 C33.9581136,7.42308316 33.9666937,7.42308316 33.9747262,7.42308316 C34.1886815,7.42180527 34.2558621,7.37780933 34.4391481,7.12058824 L38.8714199,0.904016227 C38.9342191,0.815841785 38.9729209,0.80653144 39.0324341,0.80653144 L41.0816227,0.80653144 C41.1586613,0.80653144 41.2161663,0.868600406 41.2161663,0.940709939 L41.2161663,17.7073631 C41.2161663,17.7796552 41.1588438,17.8415416 41.0816227,17.8415416 L38.6722515,17.8415416 C38.595213,17.8415416 38.5377079,17.7796552 38.5377079,17.7073631 L38.5377079,7.2268357 C38.5377079,6.72663286 38.1519675,6.60614604 37.9093509,6.94679513 L34.5738742,11.6289858 C34.4763895,11.7659026 34.2481947,11.8265112 34.1003245,11.8265112 L33.8244828,11.8265112 Z" id="_236456664"></path>
                    <path d="M8.09963489,10.0851116 C7.98517241,9.92208925 7.75752535,9.9 7.60819473,10.0787221 L6.2653144,11.4876876 C6.06705882,11.6958012 6.08622718,11.9583164 6.26604462,12.2140771 L10.0683164,17.6303245 C10.1754767,17.7619473 10.3164097,17.8417241 10.4858215,17.8417241 L13.2104665,17.8417241 C13.4342799,17.8417241 13.4532657,17.7101014 13.3095943,17.5065517 L8.09963489,10.0851116 Z M3.99395538,12.1248073 C3.99395538,11.6830223 4.0896146,11.3418256 4.42971602,10.984929 L13.807789,1.14298174 C13.9803043,0.961703854 13.9306491,0.80653144 13.7000811,0.80653144 L10.6658215,0.80653144 C10.4995132,0.80653144 10.3554767,0.886490872 10.248499,1.01793103 L3.99395538,7.58172414 L3.99395538,1.0737931 C3.99395538,0.926288032 3.86872211,0.80653144 3.72669371,0.80653144 L1.43306288,0.80653144 C1.28866126,0.80653144 1.16580122,0.929391481 1.16580122,1.0737931 L1.16580122,17.574645 C1.16580122,17.7190467 1.28574037,17.8417241 1.43306288,17.8417241 L3.72669371,17.8417241 C3.87401623,17.8417241 3.99395538,17.7219675 3.99395538,17.574645 L3.99395538,12.1248073 Z" id="_236457072" fill-rule="nonzero"></path>
                </g>
                <path d="M18.1374645,14.3795538 L18.1374645,10.4692089 L21.5253347,12.4251116 L18.1374645,14.3795538 Z M0,0 L2.06251521,1.1906288 L2.06251521,26.0350101 L47.1610953,0 L47.1610953,29.601785 L45.0985801,28.4111562 L45.0985801,3.56677485 L0,29.601785 L0,0 Z M43.5338945,6.84565923 L43.5338945,27.5084178 L41.4711968,26.3174239 L41.4711968,8.03628803 L43.5338945,6.84565923 Z M39.9055984,8.94030426 L39.9055984,25.4132252 L37.8439959,24.2229615 L37.8439959,10.1303854 L39.9055984,8.94030426 Z M36.278215,11.0342191 L36.2783976,23.3191278 L34.2233671,22.1326978 L34.2189858,12.2230223 L36.278215,11.0342191 Z M32.6508316,13.1283164 L32.6510142,21.2264909 L30.5892292,20.0362272 L30.5892292,14.3183976 L32.6508316,13.1283164 Z M29.0236308,15.2222312 L29.0236308,19.1327586 L25.6357606,17.1766734 L29.0236308,15.2222312 Z M3.62720081,22.7561258 L3.62720081,2.09336714 L5.68989858,3.28436105 L5.68989858,21.565497 L3.62720081,22.7561258 Z M7.25549696,20.6616633 L7.2553144,4.18855984 L9.31709939,5.37900609 L9.31709939,19.4715822 L7.25549696,20.6616633 Z M10.8828803,18.5677485 L10.8826978,6.28283976 L12.9377282,7.46926978 L12.9421095,17.3787627 L10.8828803,18.5677485 Z M14.5102637,16.4734686 L14.5100811,8.37529412 L16.5718661,9.56555781 L16.5718661,15.2833874 L14.5102637,16.4734686 Z" id="_236456328" fill="#52B7A0" fill-rule="nonzero"></path>
            </g>
        </g>
    </g>
</svg>