<svg width="107" height="32" viewBox="0 0 107 32" fill="none" xmlns="http://www.w3.org/2000/svg">
<path fill-rule="evenodd" clip-rule="evenodd" d="M9.09727 15.8199L18.4621 25.158L24.3753 19.2447C25.4188 18.2012 27.1045 18.2012 28.148 19.2447C29.1915 20.2882 29.1915 21.9739 28.148 23.0174L20.3618 30.8036C19.3183 31.8471 17.6059 31.8471 16.5891 30.8036L5.35133 19.5658V26.255C5.35133 27.7266 4.14728 28.9306 2.67567 28.9306C1.20405 28.9306 0 27.7266 0 26.255V5.33127C0 3.85965 1.20405 2.6556 2.67567 2.6556C4.14728 2.6556 5.35133 3.85965 5.35133 5.33127V12.0204L16.5891 0.782633C17.6326 -0.260878 19.3183 -0.260878 20.3618 0.782633L28.148 8.56882C29.1915 9.61233 29.1915 11.298 28.148 12.3415C27.1045 13.385 25.4188 13.385 24.3753 12.3415L18.4353 6.45505L9.09727 15.8199V15.8199V15.8199ZM18.4623 13.1439V13.1439C16.9907 13.1439 15.7866 14.3479 15.7866 15.8196C15.7866 17.2912 16.9907 18.4952 18.4623 18.4952C19.9339 18.4952 21.138 17.2912 21.138 15.8196C21.138 14.3479 19.9339 13.1439 18.4623 13.1439Z" fill="#21C397"/>
<path fill-rule="evenodd" clip-rule="evenodd" d="M86.7718 9.18409C86.7718 8.6222 86.7718 8.08707 86.745 7.60545C86.7183 7.12383 86.6915 6.66897 86.6113 6.24086C86.531 5.81275 86.3972 5.4114 86.2367 5.03681C86.0494 4.66222 85.8086 4.31438 85.4875 3.9933C85.0326 3.53844 84.5242 3.1906 83.9356 2.94979C83.347 2.70898 82.7048 2.5752 81.9556 2.5752C81.2064 2.5752 80.5643 2.70898 79.9756 2.94979C79.387 3.1906 78.8786 3.53844 78.4237 3.9933C78.1026 4.31438 77.8351 4.66222 77.6745 5.03681C77.4872 5.4114 77.3802 5.81275 77.2999 6.24086C77.2197 6.66897 77.1929 7.12383 77.1662 7.60545C77.1394 8.08707 77.1394 8.6222 77.1394 9.18409C77.1394 9.74598 77.1394 10.2544 77.1662 10.7627C77.1929 11.2444 77.2197 11.6992 77.2999 12.1273C77.3802 12.5554 77.4872 12.9568 77.6745 13.3314C77.8618 13.706 78.1026 14.0538 78.4237 14.3749C78.8786 14.8297 79.387 15.1776 79.9756 15.4184C80.5643 15.6592 81.2064 15.793 81.9556 15.793C82.7048 15.793 83.347 15.6592 83.9356 15.4184C84.4975 15.1776 85.0326 14.8297 85.4875 14.3749C85.8086 14.0538 86.0761 13.706 86.2367 13.3314C86.424 12.9568 86.531 12.5554 86.6113 12.1273C86.6915 11.6992 86.745 11.2444 86.745 10.7627C86.7718 10.2544 86.7718 9.74598 86.7718 9.18409V9.18409V9.18409ZM84.2302 9.18463C84.2302 9.80003 84.2302 10.3352 84.2034 10.7365C84.1767 11.1379 84.1499 11.4857 84.0964 11.7533C84.0429 12.0208 83.9894 12.2349 83.9091 12.3954C83.8289 12.556 83.7218 12.7165 83.6148 12.8503C83.4275 13.0643 83.1867 13.2249 82.9191 13.3587C82.6516 13.4925 82.3305 13.546 81.9826 13.546C81.6348 13.546 81.3137 13.4925 81.0462 13.3587C80.7518 13.2249 80.5378 13.0643 80.3505 12.8503C80.2167 12.7165 80.1364 12.556 80.0562 12.3954C79.9759 12.2349 79.9224 12.0208 79.8689 11.7533C79.8153 11.4857 79.7886 11.1646 79.7618 10.7365C79.7351 10.3352 79.7351 9.80003 79.7351 9.18463C79.7351 8.56923 79.7351 8.03409 79.7618 7.63274C79.7886 7.23139 79.8153 6.88356 79.8689 6.61599C79.9224 6.34842 79.9759 6.13437 80.0562 5.97383C80.1364 5.81329 80.2435 5.65275 80.3505 5.51897C80.5378 5.30491 80.7786 5.14437 81.0462 5.01059C81.3137 4.87681 81.6348 4.82329 81.9826 4.82329C82.3305 4.82329 82.6516 4.87681 82.9191 5.01059C83.1867 5.14437 83.4275 5.30491 83.6148 5.51897C83.7486 5.65275 83.8289 5.81329 83.9091 5.97383C83.9894 6.13437 84.0429 6.34842 84.0964 6.61599C84.1499 6.88356 84.1767 7.20464 84.2034 7.63274C84.2034 8.03409 84.2302 8.56923 84.2302 9.18463Z" fill="#21C397"/>
<path fill-rule="evenodd" clip-rule="evenodd" d="M107 2.89569C107 2.76191 106.893 2.68164 106.786 2.68164H104.699C104.565 2.68164 104.485 2.78867 104.485 2.89569V10.6284L99.3743 2.73515C99.3476 2.68164 99.3208 2.68164 99.2405 2.68164H97.2873C97.1803 2.68164 97.0732 2.78867 97.0732 2.89569C97.0732 7.06973 97.0732 11.2705 97.0732 15.4446C97.0732 15.5784 97.1803 15.6586 97.2873 15.6586H99.3743C99.5081 15.6586 99.5884 15.5516 99.5884 15.4446V7.68514L104.699 15.6051C104.726 15.6586 104.752 15.6586 104.833 15.6586H106.786C106.92 15.6586 107 15.5516 107 15.4446V2.89569V2.89569Z" fill="#21C397"/>
<path fill-rule="evenodd" clip-rule="evenodd" d="M92.9526 2.89569C92.9526 2.76191 92.8456 2.68164 92.7386 2.68164H90.6516C90.5178 2.68164 90.4375 2.78867 90.4375 2.89569V15.4446C90.4375 15.5784 90.5445 15.6586 90.6516 15.6586H92.7386C92.8724 15.6586 92.9526 15.5516 92.9526 15.4446V2.89569Z" fill="#21C397"/>
<path fill-rule="evenodd" clip-rule="evenodd" d="M67.9084 9.18419C67.9084 8.56879 67.9084 8.03365 67.9352 7.6323C67.962 7.23095 67.9887 6.88312 68.0422 6.61555C68.2295 5.49177 69.0857 4.84961 70.1828 4.84961C70.9052 4.84961 71.5473 5.11718 71.9487 5.73258C72.136 6.00015 72.2698 6.29447 72.35 6.64231C72.35 6.66906 72.3768 6.69582 72.4303 6.69582H74.8919C74.9187 6.69582 74.9454 6.66906 74.9454 6.64231C74.6779 5.11718 73.8752 3.75259 72.4303 3.08367C71.7614 2.76259 71.0122 2.60205 70.1828 2.60205C68.7914 2.60205 67.6141 3.08367 66.6776 4.02015C66.1425 4.55529 65.7679 5.2242 65.6074 5.97339C65.4736 6.69582 65.3933 7.79284 65.3933 9.21095C65.3933 10.6291 65.4736 11.6993 65.6074 12.4485C65.7411 13.1977 66.1157 13.8666 66.6776 14.4017C67.6409 15.365 68.7914 15.8198 70.1828 15.8198C71.0122 15.8198 71.7614 15.6593 72.4303 15.3382C73.8752 14.6693 74.6779 13.278 74.9454 11.7796C74.9454 11.7528 74.9454 11.7261 74.8919 11.7261H72.4303C72.3768 11.7261 72.3768 11.7528 72.35 11.7796C72.2698 12.1274 72.136 12.4485 71.9487 12.6893C71.5473 13.278 70.8784 13.5455 70.1828 13.5723C69.0857 13.5723 68.2295 12.9034 68.0422 11.8063C67.9887 11.5388 67.962 11.2177 67.9352 10.7896C67.9084 10.3347 67.9084 9.79959 67.9084 9.18419Z" fill="#21C397"/>
<path fill-rule="evenodd" clip-rule="evenodd" d="M41.874 2.89706C41.874 2.76328 41.767 2.68301 41.66 2.68301H39.5729C39.4392 2.68301 39.3589 2.79003 39.3589 2.89706V15.4459C39.3589 15.5797 39.4659 15.66 39.5729 15.66H41.66C41.7937 15.66 41.874 15.553 41.874 15.4459V11.7535L43.5597 9.74677L47.0113 15.6065C47.0381 15.66 47.0916 15.66 47.1451 15.66H49.687C49.794 15.66 49.8207 15.5797 49.7672 15.4727L45.2454 7.82029L49.3926 2.84355C49.4729 2.73652 49.4462 2.65625 49.3124 2.65625H46.5297C46.4762 2.65625 46.4762 2.65625 46.4494 2.68301L41.9008 8.14137V2.89706H41.874Z" fill="#21C397"/>
<path fill-rule="evenodd" clip-rule="evenodd" d="M57.1255 13.5181C55.9482 13.5181 54.8779 12.4211 54.8779 11.1367V2.89569C54.8779 2.76191 54.7709 2.68164 54.6639 2.68164H52.5768C52.4431 2.68164 52.3628 2.78867 52.3628 2.89569V11.0832C52.3628 13.9462 54.5033 15.7657 57.1522 15.7657C59.8011 15.7657 61.9417 13.9462 61.9417 11.0832V2.89569C61.9417 2.76191 61.8347 2.68164 61.7276 2.68164H59.6406C59.5068 2.68164 59.4266 2.78867 59.4266 2.89569V11.1367C59.373 12.4478 58.3028 13.5181 57.1255 13.5181Z" fill="#21C397"/>
<path fill-rule="evenodd" clip-rule="evenodd" d="M86.5579 28.77L84.8187 25.4522C85.0863 25.3719 85.3271 25.2381 85.5946 25.0776C86.1298 24.6762 86.3706 24.0341 86.3706 23.3919C86.3706 22.937 86.2636 22.4554 85.996 22.0808C85.6482 21.5724 85.0863 21.2514 84.4709 21.1443C84.4498 21.1413 84.4291 21.1383 84.4086 21.1353C84.2471 21.1119 84.102 21.0908 83.9357 21.0908H81.046C80.9657 21.0908 80.9122 21.1443 80.9122 21.2246V28.7165C80.9122 28.7967 80.9657 28.8503 81.046 28.8503H82.0093C82.0895 28.8503 82.143 28.7967 82.143 28.7165V25.6127H83.5344L85.0863 28.7165C85.113 28.7967 85.1933 28.8503 85.3003 28.8503H86.5044C86.5846 28.8503 86.5846 28.8235 86.5579 28.77ZM84.9256 22.75C85.0327 22.964 85.0862 23.1781 85.0862 23.3921C85.0862 23.6329 85.0327 23.847 84.9256 24.0075C84.7116 24.3821 84.2567 24.5427 83.8286 24.5427H82.1429V22.2148H83.8286C84.2567 22.2148 84.6848 22.3754 84.9256 22.75Z" fill="#21C397"/>
<path d="M106.946 26.1749C106.973 26.3354 107 26.496 107 26.6833C107 27.1649 106.866 27.6465 106.545 28.0211C106.117 28.5562 105.448 28.8238 104.779 28.9308C104.164 29.0111 103.468 28.9844 102.879 28.7971C102.532 28.69 102.211 28.5295 101.916 28.3422C101.782 28.2619 101.675 28.1549 101.542 28.0479C101.435 27.9408 101.461 27.8606 101.515 27.8071L102.05 27.2719C102.157 27.1649 102.237 27.1381 102.371 27.2452C102.719 27.5395 103.147 27.7535 103.629 27.8338C104.003 27.8873 104.378 27.8873 104.752 27.8071C105.02 27.7535 105.288 27.6465 105.475 27.4592C105.582 27.3522 105.662 27.1917 105.716 27.0311C105.769 26.8171 105.769 26.5763 105.716 26.3622C105.635 26.1214 105.502 25.9073 105.261 25.8003C105.127 25.7468 104.993 25.6933 104.859 25.6665C104.592 25.613 104.351 25.5863 104.083 25.5595C103.816 25.5327 103.548 25.4792 103.308 25.4257C103.04 25.3454 102.799 25.2652 102.558 25.1046C102.103 24.8103 101.809 24.3822 101.729 23.8471C101.649 23.3922 101.702 22.8838 101.863 22.4557C102.05 22.0276 102.398 21.6798 102.799 21.439C102.986 21.3319 103.227 21.2517 103.441 21.1982C103.869 21.0911 104.351 21.0911 104.779 21.1179C105.073 21.1446 105.368 21.1982 105.635 21.3052C106.01 21.439 106.331 21.653 106.625 21.8938C106.732 22.0009 106.679 22.0544 106.625 22.1079L106.037 22.6965C105.983 22.75 105.903 22.75 105.849 22.6698C105.796 22.6163 105.742 22.5895 105.689 22.536C105.528 22.429 105.368 22.3487 105.181 22.2684C104.913 22.1882 104.619 22.1346 104.324 22.1346C104.057 22.1346 103.789 22.1614 103.522 22.2952C103.12 22.4825 102.906 22.8571 102.906 23.3119C102.906 23.5795 102.986 23.8203 103.174 23.9809C103.441 24.2217 103.843 24.3019 104.191 24.3554C104.378 24.3822 104.565 24.409 104.752 24.4357C105.073 24.4892 105.395 24.5427 105.689 24.6498C106.09 24.8103 106.438 25.0511 106.652 25.4257C106.839 25.6398 106.92 25.9073 106.946 26.1749Z" fill="#21C397"/>
<path d="M91.6686 28.8771C91.5883 28.8771 91.5348 28.8236 91.5348 28.7433V21.2515C91.5348 21.1712 91.5883 21.1177 91.6686 21.1177H96.3777C96.458 21.1177 96.5115 21.1712 96.5115 21.2515V22.1077C96.5115 22.1879 96.458 22.2415 96.3777 22.2415H92.7656V24.4087H95.0399H95.6553H95.8159C95.8961 24.4087 95.9496 24.4623 95.9496 24.5425V24.9439V24.9706V25.372C95.9496 25.4523 95.8961 25.5058 95.8159 25.5058H95.6553H95.0399H92.7656V27.7266H96.3777C96.458 27.7266 96.5115 27.7801 96.5115 27.8604V28.7166C96.5115 28.7968 96.458 28.8504 96.3777 28.8504C94.7991 28.8771 93.2205 28.8771 91.6686 28.8771Z" fill="#21C397"/>
<path d="M63.2259 22.2419V28.7438C63.2259 28.8241 63.1724 28.8776 63.0921 28.8776H62.1289C62.0486 28.8776 61.9951 28.8241 61.9951 28.7438C61.9951 26.5765 61.9951 24.4092 61.9951 22.2419H60.0151C59.9349 22.2419 59.8813 22.1884 59.8813 22.1082V21.2519C59.8813 21.1717 59.9349 21.1182 60.0151 21.1182H65.2059C65.2862 21.1182 65.3397 21.1717 65.3397 21.2519V22.1082C65.3397 22.1884 65.2862 22.2419 65.2059 22.2419H63.2259Z" fill="#21C397"/>
<path d="M54.9049 26.255C54.9049 26.8168 54.7443 27.352 54.4233 27.8068C54.0219 28.3955 53.353 28.7701 52.6573 28.9039C52.47 28.9306 52.2827 28.9574 52.0954 28.9574C51.9081 28.9574 51.7208 28.9306 51.5335 28.9039C50.8379 28.7701 50.1957 28.3955 49.7676 27.8068C49.4465 27.352 49.3127 26.7901 49.3127 26.255C49.3127 24.596 49.3127 22.9104 49.3127 21.2515C49.3127 21.1712 49.3663 21.1177 49.4465 21.1177H50.4098C50.49 21.1177 50.5436 21.1712 50.5436 21.2515C50.5436 22.9104 50.5436 24.5425 50.5436 26.2014C50.5436 26.9239 50.8914 27.5928 51.6406 27.7801C51.7744 27.8068 51.9349 27.8336 52.0954 27.8336C52.256 27.8336 52.3898 27.8068 52.5503 27.7801C53.2995 27.5928 53.6741 26.9239 53.6741 26.2014V21.2515C53.6741 21.1712 53.7276 21.1177 53.8079 21.1177H54.7711C54.8514 21.1177 54.9049 21.1712 54.9049 21.2515C54.9049 22.9104 54.9049 24.5693 54.9049 26.255Z" fill="#21C397"/>
<path d="M40.5897 22.2415V24.5158H43.64C43.7202 24.5158 43.7737 24.5693 43.7737 24.6496V25.5058C43.7737 25.586 43.7202 25.6396 43.64 25.6396H40.5897V28.7433C40.5897 28.8236 40.5362 28.8771 40.4559 28.8771H39.4927C39.4124 28.8771 39.3589 28.8236 39.3589 28.7433V21.2515C39.3589 21.1712 39.4124 21.1177 39.4927 21.1177H44.2018C44.2821 21.1177 44.3356 21.1712 44.3356 21.2515V22.1077C44.3356 22.1879 44.2821 22.2415 44.2018 22.2415H40.5897V22.2415Z" fill="#21C397"/>
<path d="M75.9087 26.255C75.9087 26.8168 75.7481 27.352 75.4271 27.8068C75.0257 28.3955 74.3568 28.7701 73.6611 28.9039C73.4738 28.9306 73.2865 28.9574 73.0992 28.9574C72.9119 28.9574 72.7246 28.9306 72.5373 28.9039C71.8417 28.7701 71.1995 28.3955 70.7714 27.8068C70.4503 27.352 70.3165 26.7901 70.3165 26.255C70.3165 24.596 70.3165 22.9104 70.3165 21.2515C70.3165 21.1712 70.37 21.1177 70.4503 21.1177H71.4136C71.4938 21.1177 71.5473 21.1712 71.5473 21.2515C71.5473 22.9104 71.5473 24.5425 71.5473 26.2014C71.5473 26.9239 71.8952 27.5928 72.6444 27.7801C72.7781 27.8068 72.9387 27.8336 73.0725 27.8336C73.233 27.8336 73.3668 27.8068 73.5273 27.7801C74.2765 27.5928 74.6511 26.9239 74.6511 26.2014V21.2515C74.6511 21.1712 74.7046 21.1177 74.7849 21.1177H75.7481C75.8284 21.1177 75.8819 21.1712 75.8819 21.2515C75.9087 22.9104 75.9087 24.5693 75.9087 26.255Z" fill="#21C397"/>
</svg>
