<?xml version="1.0" encoding="UTF-8"?>
<svg width="95px" height="28px" viewBox="0 0 95 28" version="1.1" xmlns="http://www.w3.org/2000/svg" xmlns:xlink="http://www.w3.org/1999/xlink">
    <title>KuCoin_Futures_en</title>
    <g id="Symbols" stroke="none" stroke-width="1" fill="none" fill-rule="evenodd">
        <g id="KuCoin_Futures_en" fill="#23AF91" fill-rule="nonzero">
            <path d="M8.22342342,14.1513514 L16.4216216,22.3243243 L21.618018,17.1279279 C22.5261261,16.2198198 24.0144144,16.2198198 24.9225225,17.1279279 C25.8306306,18.036036 25.8306306,19.5243243 24.9225225,20.4324324 L18.0864865,27.2684685 C17.1783784,28.1765766 15.6648649,28.1765766 14.781982,27.2684685 L4.91891892,17.4054054 L4.91891892,23.2576577 C4.91891892,24.5441441 3.85945946,25.6036036 2.57297297,25.6036036 C1.28648649,25.6036036 0.227027027,24.5441441 0.227027027,23.2576577 L0.227027027,4.91891892 C0.227027027,3.63243243 1.28648649,2.57297297 2.57297297,2.57297297 C3.85945946,2.57297297 4.91891892,3.63243243 4.91891892,4.91891892 L4.91891892,10.7711712 L14.781982,0.908108108 C15.6900901,-2.77555756e-17 17.1783784,-2.77555756e-17 18.0864865,0.908108108 L24.9225225,7.74414414 C25.8306306,8.65225225 25.8306306,10.1405405 24.9225225,11.0486486 C24.0144144,11.9567568 22.5261261,11.9567568 21.618018,11.0486486 L16.4216216,5.9027027 L8.22342342,14.1513514 L8.22342342,14.1513514 L8.22342342,14.1513514 Z M16.4468468,11.8054054 L16.4468468,11.8054054 C15.1603604,11.8054054 14.1009009,12.8648649 14.1009009,14.1513514 C14.1009009,15.4378378 15.1603604,16.4972973 16.4468468,16.4972973 C17.7333333,16.4972973 18.7927928,15.4378378 18.7927928,14.1513514 C18.7927928,12.8648649 17.7333333,11.8054054 16.4468468,11.8054054 Z" id="Shape"></path>
            <g id="Group" transform="translate(34.558559, 2.522523)">
                <path d="M41.7981982,5.82702703 C41.7981982,5.34774775 41.7981982,4.86846847 41.772973,4.43963964 C41.7477477,4.01081081 41.7225225,3.63243243 41.6468468,3.25405405 C41.5711712,2.87567568 41.4702703,2.52252252 41.3189189,2.19459459 C41.1675676,1.86666667 40.9405405,1.56396396 40.6630631,1.28648649 C40.2594595,0.882882883 39.8306306,0.58018018 39.3009009,0.378378378 C38.7963964,0.176576577 38.2162162,0.0504504505 37.5603604,0.0504504505 C36.9045045,0.0504504505 36.3495495,0.176576577 35.8198198,0.378378378 C35.3153153,0.58018018 34.8612613,0.882882883 34.4576577,1.28648649 C34.1801802,1.56396396 33.9531532,1.86666667 33.8018018,2.19459459 C33.6504505,2.52252252 33.5495495,2.87567568 33.4738739,3.25405405 C33.3981982,3.63243243 33.372973,4.03603604 33.3477477,4.43963964 C33.3225225,4.86846847 33.3225225,5.32252252 33.3225225,5.82702703 C33.3225225,6.33153153 33.3225225,6.76036036 33.3477477,7.21441441 C33.372973,7.64324324 33.3981982,8.02162162 33.4738739,8.4 C33.5495495,8.77837838 33.6252252,9.13153153 33.8018018,9.45945946 C33.9783784,9.78738739 34.1801802,10.0900901 34.4576577,10.3675676 C34.8612613,10.7711712 35.2900901,11.0738739 35.8198198,11.2756757 C36.3243243,11.4774775 36.9045045,11.6036036 37.5603604,11.6036036 C38.2162162,11.6036036 38.7711712,11.4774775 39.3009009,11.2756757 C39.7801802,11.0738739 40.2594595,10.7711712 40.6630631,10.3675676 C40.9405405,10.0900901 41.1675676,9.78738739 41.3189189,9.45945946 C41.4702703,9.13153153 41.5711712,8.77837838 41.6468468,8.4 C41.7225225,8.02162162 41.772973,7.61801802 41.772973,7.21441441 C41.7981982,6.76036036 41.7981982,6.30630631 41.7981982,5.82702703 L41.7981982,5.82702703 L41.7981982,5.82702703 Z M39.5531532,5.82702703 C39.5531532,6.35675676 39.5531532,6.83603604 39.5279279,7.18918919 C39.5027027,7.54234234 39.4774775,7.84504505 39.427027,8.07207207 C39.3765766,8.2990991 39.3261261,8.5009009 39.2756757,8.62702703 C39.2252252,8.75315315 39.1243243,8.9045045 39.0234234,9.03063063 C38.8720721,9.20720721 38.645045,9.35855856 38.418018,9.45945946 C38.190991,9.58558559 37.9135135,9.61081081 37.6108108,9.61081081 C37.3081081,9.61081081 37.0306306,9.56036036 36.8036036,9.45945946 C36.5513514,9.33333333 36.3747748,9.20720721 36.1981982,9.03063063 C36.0720721,8.9045045 36.0216216,8.77837838 35.9459459,8.62702703 C35.8702703,8.47567568 35.8198198,8.2990991 35.7945946,8.07207207 C35.7441441,7.84504505 35.7189189,7.56756757 35.6936937,7.18918919 C35.6684685,6.83603604 35.6684685,6.38198198 35.6684685,5.82702703 C35.6684685,5.2972973 35.6684685,4.81801802 35.6936937,4.46486486 C35.7189189,4.11171171 35.7441441,3.80900901 35.7945946,3.58198198 C35.845045,3.35495495 35.8954955,3.15315315 35.9459459,3.02702703 C36.0216216,2.87567568 36.0972973,2.74954955 36.1981982,2.62342342 C36.3495495,2.44684685 36.5765766,2.2954955 36.8036036,2.19459459 C37.0306306,2.09369369 37.3081081,2.04324324 37.6108108,2.04324324 C37.9135135,2.04324324 38.190991,2.09369369 38.418018,2.19459459 C38.645045,2.32072072 38.8468468,2.44684685 39.0234234,2.62342342 C39.1495495,2.74954955 39.2,2.87567568 39.2756757,3.02702703 C39.3513514,3.17837838 39.4018018,3.35495495 39.427027,3.58198198 C39.4522523,3.80900901 39.5027027,4.08648649 39.5279279,4.46486486 C39.5279279,4.81801802 39.5531532,5.27207207 39.5531532,5.82702703 Z" id="Shape"></path>
                <path d="M59.5315315,0.302702703 C59.5315315,0.176576577 59.4306306,0.126126126 59.354955,0.126126126 L57.5135135,0.126126126 C57.3873874,0.126126126 57.3369369,0.227027027 57.3369369,0.302702703 L57.3369369,7.08828829 L52.8468468,0.151351351 C52.8216216,0.100900901 52.7963964,0.100900901 52.7207207,0.100900901 L51.0054054,0.100900901 C50.9045045,0.100900901 50.8288288,0.201801802 50.8288288,0.277477477 C50.8288288,3.93513514 50.8288288,7.61801802 50.8288288,11.2756757 C50.8288288,11.4018018 50.9297297,11.4522523 51.0054054,11.4522523 L52.8468468,11.4522523 C52.972973,11.4522523 53.0234234,11.3513514 53.0234234,11.2756757 L53.0234234,4.46486486 L57.5135135,11.427027 C57.5387387,11.4774775 57.563964,11.4774775 57.6396396,11.4774775 L59.354955,11.4774775 C59.4810811,11.4774775 59.5315315,11.3765766 59.5315315,11.3009009 L59.5315315,0.302702703 L59.5315315,0.302702703 Z" id="Path"></path>
                <path d="M47.1963964,0.302702703 C47.1963964,0.176576577 47.0954955,0.126126126 47.0198198,0.126126126 L45.1783784,0.126126126 C45.0522523,0.126126126 45.0018018,0.227027027 45.0018018,0.302702703 L45.0018018,11.3009009 C45.0018018,11.427027 45.1027027,11.4774775 45.1783784,11.4774775 L47.0198198,11.4774775 C47.1459459,11.4774775 47.1963964,11.3765766 47.1963964,11.3009009 L47.1963964,0.302702703 Z" id="Path"></path>
                <path d="M25.2504505,5.82702703 C25.2504505,5.2972973 25.2504505,4.81801802 25.2756757,4.46486486 C25.3009009,4.11171171 25.3261261,3.80900901 25.3765766,3.58198198 C25.5279279,2.5981982 26.2846847,2.04324324 27.2684685,2.04324324 C27.8990991,2.04324324 28.4540541,2.27027027 28.8072072,2.82522523 C28.9585586,3.05225225 29.0846847,3.3045045 29.1603604,3.60720721 C29.1603604,3.63243243 29.1855856,3.65765766 29.236036,3.65765766 L31.4054054,3.65765766 C31.4306306,3.65765766 31.4558559,3.63243243 31.4558559,3.60720721 C31.2288288,2.27027027 30.5225225,1.08468468 29.236036,0.504504505 C28.6558559,0.227027027 28,0.0756756757 27.2684685,0.0756756757 C26.0576577,0.0756756757 25.0234234,0.504504505 24.190991,1.31171171 C23.7369369,1.76576577 23.409009,2.37117117 23.2576577,3.02702703 C23.1315315,3.65765766 23.0810811,4.61621622 23.0810811,5.85225225 C23.0810811,7.08828829 23.1567568,8.04684685 23.2576577,8.67747748 C23.3837838,9.33333333 23.6864865,9.91351351 24.190991,10.3927928 C25.0234234,11.2252252 26.0576577,11.6288288 27.2684685,11.6288288 C28,11.6288288 28.6558559,11.4774775 29.236036,11.2 C30.4972973,10.6198198 31.2036036,9.38378378 31.4558559,8.0972973 C31.4558559,8.07207207 31.4558559,8.04684685 31.4054054,8.04684685 L29.236036,8.04684685 C29.1855856,8.04684685 29.1855856,8.07207207 29.1603604,8.0972973 C29.0846847,8.4 28.9837838,8.67747748 28.8072072,8.87927928 C28.4540541,9.38378378 27.8738739,9.63603604 27.2684685,9.66126126 C26.3099099,9.66126126 25.5531532,9.08108108 25.3765766,8.12252252 C25.3261261,7.8954955 25.3009009,7.61801802 25.2756757,7.23963964 C25.2504505,6.81081081 25.2504505,6.35675676 25.2504505,5.82702703 Z" id="Path"></path>
                <path d="M2.42162162,0.302702703 C2.42162162,0.176576577 2.32072072,0.126126126 2.24504505,0.126126126 L0.403603604,0.126126126 C0.277477477,0.126126126 0.227027027,0.227027027 0.227027027,0.302702703 L0.227027027,11.3009009 C0.227027027,11.427027 0.327927928,11.4774775 0.403603604,11.4774775 L2.24504505,11.4774775 C2.37117117,11.4774775 2.42162162,11.3765766 2.42162162,11.3009009 L2.42162162,8.07207207 L3.90990991,6.30630631 L6.93693694,11.4522523 C6.96216216,11.5027027 7.01261261,11.5027027 7.06306306,11.5027027 L9.28288288,11.5027027 C9.38378378,11.5027027 9.40900901,11.427027 9.35855856,11.3513514 L5.3981982,4.64144144 L9.03063063,0.277477477 C9.10630631,0.176576577 9.08108108,0.126126126 8.95495495,0.126126126 L6.50810811,0.126126126 C6.45765766,0.126126126 6.45765766,0.126126126 6.43243243,0.151351351 L2.44684685,4.94414414 L2.42162162,0.302702703 L2.42162162,0.302702703 L2.42162162,0.302702703 Z" id="Path"></path>
                <path d="M15.790991,9.61081081 C14.7567568,9.61081081 13.8234234,8.65225225 13.8234234,7.51711712 L13.8234234,0.277477477 C13.8234234,0.151351351 13.7225225,0.100900901 13.6468468,0.100900901 L11.8054054,0.100900901 C11.6792793,0.100900901 11.6288288,0.201801802 11.6288288,0.277477477 L11.6288288,7.46666667 C11.6288288,9.98918919 13.5207207,11.5783784 15.8414414,11.5783784 C18.1621622,11.5783784 20.0540541,9.98918919 20.0540541,7.46666667 L20.0540541,0.277477477 C20.0540541,0.151351351 19.9531532,0.100900901 19.8774775,0.100900901 L18.036036,0.100900901 C17.9099099,0.100900901 17.8594595,0.201801802 17.8594595,0.277477477 L17.8594595,7.51711712 C17.7585586,8.67747748 16.8252252,9.61081081 15.790991,9.61081081 Z" id="Path"></path>
            </g>
            <path d="M74.6414414,22.6018018 L76.1801802,25.5027027 C76.2054054,25.5531532 76.2054054,25.5783784 76.1297297,25.5783784 L75.0702703,25.5783784 C74.9693694,25.5783784 74.9189189,25.5279279 74.8936937,25.4522523 L73.5315315,22.7279279 L72.3207207,22.7279279 L72.3207207,25.4522523 C72.3207207,25.5279279 72.2702703,25.5783784 72.1945946,25.5783784 L71.3621622,25.5783784 C71.2864865,25.5783784 71.236036,25.5279279 71.236036,25.4522523 C71.236036,23.2576577 71.236036,21.0630631 71.236036,18.8684685 C71.236036,18.7927928 71.2864865,18.7423423 71.3621622,18.7423423 L73.8846847,18.7423423 C74.036036,18.7423423 74.1873874,18.7675676 74.3387387,18.7927928 C74.8684685,18.8936937 75.372973,19.1711712 75.6756757,19.6 C75.9027027,19.9279279 76.0036036,20.3567568 76.0036036,20.7603604 C76.0036036,21.3153153 75.8018018,21.8954955 75.3225225,22.2486486 C75.0702703,22.4252252 74.8684685,22.5261261 74.6414414,22.6018018 L74.6414414,22.6018018 Z M74.8684685,20.8108108 C74.8684685,20.6342342 74.818018,20.4324324 74.7171171,20.2558559 C74.5153153,19.9279279 74.1369369,19.8018018 73.7585586,19.8018018 L72.2702703,19.8018018 L72.2702703,21.845045 L73.7585586,21.845045 C74.1369369,21.845045 74.5405405,21.6936937 74.7171171,21.390991 C74.818018,21.1891892 74.8684685,21.0126126 74.8684685,20.8108108 Z" id="Shape"></path>
            <path d="M94.0396396,23.2324324 C94.0648649,23.3837838 94.0900901,23.5099099 94.0900901,23.6612613 C94.0900901,24.0900901 93.963964,24.4936937 93.6864865,24.8216216 C93.3081081,25.2756757 92.7279279,25.5279279 92.1477477,25.6036036 C91.618018,25.6792793 90.9873874,25.6540541 90.4828829,25.4774775 C90.1801802,25.3765766 89.9027027,25.2504505 89.6504505,25.0738739 C89.5243243,24.9981982 89.4486486,24.9225225 89.3225225,24.8216216 C89.2216216,24.7207207 89.2468468,24.6702703 89.2972973,24.6198198 L89.7513514,24.1657658 C89.8522523,24.0648649 89.9027027,24.0396396 90.0288288,24.1405405 C90.3315315,24.3927928 90.7099099,24.5693694 91.1387387,24.645045 C91.4666667,24.6954955 91.7945946,24.6954955 92.1225225,24.6198198 C92.3495495,24.5693694 92.5765766,24.4684685 92.7531532,24.3171171 C92.8540541,24.2162162 92.9045045,24.0900901 92.954955,23.9387387 C93.0054054,23.7621622 93.0054054,23.5351351 92.954955,23.3585586 C92.8792793,23.1567568 92.7783784,22.954955 92.5513514,22.8792793 C92.4252252,22.8288288 92.3243243,22.7783784 92.1981982,22.7531532 C91.9711712,22.7027027 91.7441441,22.6774775 91.5171171,22.6522523 C91.2900901,22.627027 91.0630631,22.5765766 90.836036,22.5261261 C90.609009,22.4504505 90.4072072,22.3747748 90.1801802,22.2486486 C89.7765766,21.9963964 89.5243243,21.618018 89.4486486,21.1387387 C89.372973,20.7351351 89.4234234,20.3063063 89.5747748,19.9279279 C89.7261261,19.5495495 90.0288288,19.2468468 90.381982,19.045045 C90.5333333,18.9441441 90.7603604,18.8936937 90.9369369,18.8432432 C91.3153153,18.7423423 91.7189189,18.7423423 92.0972973,18.7675676 C92.3495495,18.7927928 92.6018018,18.8432432 92.8540541,18.9189189 C93.181982,19.045045 93.4594595,19.2216216 93.7117117,19.4234234 C93.8126126,19.5243243 93.7621622,19.5747748 93.7117117,19.6 L93.2072072,20.1045045 C93.1567568,20.154955 93.0810811,20.154955 93.0558559,20.0792793 C93.0054054,20.0288288 92.954955,20.0036036 92.9045045,19.9531532 C92.7531532,19.8522523 92.627027,19.8018018 92.4756757,19.7261261 C92.2486486,19.6504505 91.9963964,19.6 91.7189189,19.6 C91.4918919,19.6 91.2648649,19.6252252 91.0126126,19.7513514 C90.6594595,19.9027027 90.4828829,20.2306306 90.4828829,20.6342342 C90.4828829,20.8612613 90.5585586,21.0630631 90.7099099,21.2144144 C90.9369369,21.4162162 91.2900901,21.4918919 91.5927928,21.5423423 C91.7441441,21.5675676 91.9207207,21.5927928 92.0720721,21.618018 C92.3495495,21.6684685 92.627027,21.7189189 92.8792793,21.7945946 C93.2324324,21.9459459 93.5351351,22.1477477 93.7117117,22.4756757 C93.9387387,22.7783784 94.0144144,23.0054054 94.0396396,23.2324324 Z" id="Path"></path>
            <path d="M80.645045,25.6036036 C80.5693694,25.6036036 80.5189189,25.5531532 80.5189189,25.4774775 L80.5189189,18.9189189 C80.5189189,18.8432432 80.5693694,18.7927928 80.645045,18.7927928 L84.7567568,18.7927928 C84.8324324,18.7927928 84.8828829,18.8432432 84.8828829,18.9189189 L84.8828829,19.6756757 C84.8828829,19.7513514 84.8324324,19.8018018 84.7567568,19.8018018 L81.6036036,19.8018018 L81.6036036,21.7189189 L83.5963964,21.7189189 L84.1261261,21.7189189 L84.2774775,21.7189189 C84.3531532,21.7189189 84.4036036,21.7693694 84.4036036,21.845045 L84.4036036,22.1981982 L84.4036036,22.2234234 L84.4036036,22.5765766 C84.4036036,22.6522523 84.3531532,22.7027027 84.2774775,22.7027027 L84.1261261,22.7027027 L83.5963964,22.7027027 L81.6036036,22.7027027 L81.6036036,24.645045 L84.7567568,24.645045 C84.8324324,24.645045 84.8828829,24.6954955 84.8828829,24.7711712 L84.8828829,25.5279279 C84.8828829,25.6036036 84.8324324,25.6540541 84.7567568,25.6540541 C83.3945946,25.6036036 82.0072072,25.6036036 80.645045,25.6036036 Z" id="Path"></path>
            <path d="M55.6972973,19.7765766 L55.6972973,25.4774775 C55.6972973,25.5531532 55.6468468,25.6036036 55.5711712,25.6036036 L54.7387387,25.6036036 C54.6630631,25.6036036 54.6126126,25.5531532 54.6126126,25.4774775 C54.6126126,23.5603604 54.6126126,21.6684685 54.6126126,19.7765766 L52.8720721,19.7765766 C52.7963964,19.7765766 52.7459459,19.7261261 52.7459459,19.6504505 L52.7459459,18.8936937 C52.7459459,18.818018 52.7963964,18.7675676 52.8720721,18.7675676 L57.4126126,18.7675676 C57.4882883,18.7675676 57.5387387,18.818018 57.5387387,18.8936937 L57.5387387,19.6504505 C57.5387387,19.7261261 57.4882883,19.7765766 57.4126126,19.7765766 L55.6972973,19.7765766 Z" id="Path"></path>
            <path d="M48.4072072,23.3081081 C48.4072072,23.7873874 48.2558559,24.2666667 47.9783784,24.6702703 C47.6252252,25.1747748 47.045045,25.5027027 46.4396396,25.6288288 C46.2882883,25.6540541 46.1117117,25.6792793 45.9603604,25.6792793 C45.809009,25.6792793 45.6324324,25.6540541 45.4810811,25.6288288 C44.8756757,25.5027027 44.3207207,25.2 43.9423423,24.6702703 C43.6648649,24.2666667 43.5387387,23.7873874 43.5387387,23.3081081 C43.5387387,21.845045 43.5387387,20.381982 43.5387387,18.9189189 C43.5387387,18.8432432 43.5891892,18.7927928 43.6648649,18.7927928 L44.4972973,18.7927928 C44.572973,18.7927928 44.6234234,18.8432432 44.6234234,18.9189189 C44.6234234,20.381982 44.6234234,21.7945946 44.6234234,23.2576577 C44.6234234,23.8882883 44.9261261,24.4684685 45.581982,24.645045 C45.7081081,24.6702703 45.8342342,24.6954955 45.9855856,24.6954955 C46.1369369,24.6954955 46.2378378,24.6702703 46.3891892,24.645045 C47.045045,24.4936937 47.372973,23.8882883 47.372973,23.2576577 L47.372973,18.9189189 C47.372973,18.8432432 47.4234234,18.7927928 47.4990991,18.7927928 L48.3315315,18.7927928 C48.4072072,18.7927928 48.4576577,18.8432432 48.4576577,18.9189189 C48.4072072,20.381982 48.4072072,21.8198198 48.4072072,23.3081081 Z" id="Path"></path>
            <path d="M35.845045,19.7765766 L35.845045,21.7693694 L38.5189189,21.7693694 C38.5945946,21.7693694 38.645045,21.8198198 38.645045,21.8954955 L38.645045,22.6522523 C38.645045,22.7279279 38.5945946,22.7783784 38.5189189,22.7783784 L35.845045,22.7783784 L35.845045,25.5027027 C35.845045,25.5783784 35.7945946,25.6288288 35.7189189,25.6288288 L34.8864865,25.6288288 C34.8108108,25.6288288 34.7603604,25.5783784 34.7603604,25.5027027 L34.7603604,18.9189189 C34.7603604,18.8432432 34.8108108,18.7927928 34.8864865,18.7927928 L39.0234234,18.7927928 C39.0990991,18.7927928 39.1495495,18.8432432 39.1495495,18.9189189 L39.1495495,19.6756757 C39.1495495,19.7513514 39.0990991,19.8018018 39.0234234,19.8018018 L35.845045,19.7765766 L35.845045,19.7765766 Z" id="Path"></path>
            <path d="M66.8216216,23.3081081 C66.8216216,23.7873874 66.6702703,24.2666667 66.3927928,24.6702703 C66.0396396,25.1747748 65.4594595,25.5027027 64.8540541,25.6288288 C64.7027027,25.6540541 64.5261261,25.6792793 64.3747748,25.6792793 C64.2234234,25.6792793 64.0468468,25.6540541 63.8954955,25.6288288 C63.2900901,25.5027027 62.7351351,25.2 62.3567568,24.6702703 C62.0792793,24.2666667 61.9531532,23.7873874 61.9531532,23.3081081 C61.9531532,21.845045 61.9531532,20.381982 61.9531532,18.9189189 C61.9531532,18.8432432 62.0036036,18.7927928 62.0792793,18.7927928 L62.9117117,18.7927928 C62.9873874,18.7927928 63.0378378,18.8432432 63.0378378,18.9189189 C63.0378378,20.381982 63.0378378,21.7945946 63.0378378,23.2576577 C63.0378378,23.8882883 63.3405405,24.4684685 63.9963964,24.645045 C64.1225225,24.6702703 64.2486486,24.6954955 64.3747748,24.6954955 C64.5261261,24.6954955 64.627027,24.6702703 64.7783784,24.645045 C65.4342342,24.4936937 65.7621622,23.8882883 65.7621622,23.2576577 L65.7621622,18.9189189 C65.7621622,18.8432432 65.8126126,18.7927928 65.8882883,18.7927928 L66.7207207,18.7927928 C66.7963964,18.7927928 66.8468468,18.8432432 66.8468468,18.9189189 C66.8216216,20.381982 66.8216216,21.8198198 66.8216216,23.3081081 Z" id="Path"></path>
        </g>
    </g>
</svg>