<?xml version="1.0" encoding="UTF-8"?>
<svg width="96px" height="28px" viewBox="0 0 96 28" version="1.1" xmlns="http://www.w3.org/2000/svg" xmlns:xlink="http://www.w3.org/1999/xlink">
    <title>KuCoin_Futures_cn</title>
    <g id="Symbols" stroke="none" stroke-width="1" fill="none" fill-rule="evenodd">
        <g id="KuCoin_Futures_cn" transform="translate(-0.000000, 0.000000)" fill="#23AF91" fill-rule="nonzero">
            <path d="M8.24727273,14.0254545 L16.5454545,22.2981818 L21.7890909,17.0545455 C22.7054545,16.1381818 24.2072727,16.1381818 25.1236364,17.0545455 C26.04,17.9709091 26.04,19.4727273 25.1236364,20.3890909 L18.2254545,27.2872727 C17.3090909,28.2036364 15.7818182,28.2036364 14.8909091,27.2872727 L4.93818182,17.3345455 L4.93818182,23.2654545 C4.93818182,24.5636364 3.86909091,25.6327273 2.57090909,25.6327273 C1.27272727,25.6327273 0.203636364,24.5636364 0.203636364,23.2654545 L0.203636364,4.76 C0.203636364,3.46181818 1.27272727,2.39272727 2.57090909,2.39272727 C3.86909091,2.39272727 4.93818182,3.46181818 4.93818182,4.76 L4.93818182,10.6909091 L14.8909091,0.738181818 C15.8072727,-0.178181818 17.3090909,-0.178181818 18.2254545,0.738181818 L25.1236364,7.63636364 C26.04,8.55272727 26.04,10.0545455 25.1236364,10.9709091 C24.2072727,11.8872727 22.7054545,11.8872727 21.7890909,10.9709091 L16.5454545,5.75272727 L8.24727273,14.0254545 L8.24727273,14.0254545 L8.24727273,14.0254545 Z M16.5454545,11.6581818 L16.5454545,11.6581818 C15.2472727,11.6581818 14.1781818,12.7272727 14.1781818,14.0254545 C14.1781818,15.3236364 15.2472727,16.3927273 16.5454545,16.3927273 C17.8436364,16.3927273 18.9127273,15.3236364 18.9127273,14.0254545 C18.9381818,12.7272727 17.8436364,11.6581818 16.5454545,11.6581818 Z" id="Shape"></path>
            <g id="Group" transform="translate(34.872727, 1.781818)">
                <path d="M42.1781818,5.98181818 C42.1781818,5.49818182 42.1781818,5.01454545 42.1527273,4.58181818 C42.1272727,4.14909091 42.1018182,3.76727273 42.0254545,3.38545455 C41.9490909,3.00363636 41.8472727,2.64727273 41.6945455,2.31636364 C41.5418182,1.98545455 41.3127273,1.68 41.0327273,1.4 C40.6254545,0.992727273 40.1927273,0.687272727 39.6581818,0.483636364 C39.1490909,0.28 38.5636364,0.152727273 37.9018182,0.152727273 C37.24,0.152727273 36.68,0.28 36.1454545,0.483636364 C35.6363636,0.687272727 35.1781818,0.992727273 34.7709091,1.4 C34.4909091,1.68 34.2618182,1.98545455 34.1090909,2.31636364 C33.9563636,2.64727273 33.8545455,3.00363636 33.7781818,3.38545455 C33.7018182,3.76727273 33.6763636,4.17454545 33.6509091,4.58181818 C33.6254545,4.98909091 33.6254545,5.47272727 33.6254545,5.98181818 C33.6254545,6.49090909 33.6254545,6.92363636 33.6509091,7.38181818 C33.6763636,7.81454545 33.7018182,8.19636364 33.7781818,8.57818182 C33.8545455,8.96 33.9309091,9.31636364 34.1090909,9.64727273 C34.2872727,9.97818182 34.4909091,10.2836364 34.7709091,10.5636364 C35.1781818,10.9709091 35.6109091,11.2763636 36.1454545,11.48 C36.6545455,11.6836364 37.24,11.8109091 37.9018182,11.8109091 C38.5636364,11.8109091 39.1236364,11.6836364 39.6581818,11.48 C40.1418182,11.2763636 40.6254545,10.9709091 41.0327273,10.5636364 C41.3127273,10.2836364 41.5418182,9.97818182 41.6945455,9.64727273 C41.8472727,9.31636364 41.9490909,8.96 42.0254545,8.57818182 C42.1018182,8.19636364 42.1527273,7.78909091 42.1527273,7.38181818 C42.1781818,6.92363636 42.1781818,6.49090909 42.1781818,5.98181818 L42.1781818,5.98181818 L42.1781818,5.98181818 Z M39.9381818,5.98181818 C39.9381818,6.51636364 39.9381818,7 39.9127273,7.35636364 C39.8872727,7.71272727 39.8618182,8.01818182 39.8109091,8.24727273 C39.76,8.47636364 39.7090909,8.68 39.6581818,8.80727273 C39.6072727,8.93454545 39.5054545,9.08727273 39.4036364,9.21454545 C39.2509091,9.39272727 39.0218182,9.54545455 38.7927273,9.64727273 C38.5636364,9.77454545 38.2836364,9.8 37.9781818,9.8 C37.6727273,9.8 37.3927273,9.74909091 37.1636364,9.64727273 C36.9090909,9.52 36.7309091,9.39272727 36.5527273,9.21454545 C36.4254545,9.08727273 36.3745455,8.96 36.2981818,8.80727273 C36.2218182,8.65454545 36.1709091,8.47636364 36.1454545,8.24727273 C36.0945455,8.01818182 36.0690909,7.73818182 36.0436364,7.35636364 C36.0181818,7 36.0181818,6.54181818 36.0181818,5.98181818 C36.0181818,5.42181818 36.0181818,4.96363636 36.0436364,4.60727273 C36.0690909,4.25090909 36.0945455,3.94545455 36.1454545,3.71636364 C36.1963636,3.48727273 36.2472727,3.28363636 36.2981818,3.15636364 C36.3745455,3.00363636 36.4509091,2.87636364 36.5527273,2.74909091 C36.7054545,2.57090909 36.9345455,2.41818182 37.1636364,2.31636364 C37.3927273,2.21454545 37.6727273,2.16363636 37.9781818,2.16363636 C38.2836364,2.16363636 38.5636364,2.21454545 38.7927273,2.31636364 C39.0218182,2.44363636 39.2254545,2.57090909 39.4036364,2.74909091 C39.5309091,2.87636364 39.5818182,3.00363636 39.6581818,3.15636364 C39.7345455,3.30909091 39.7854545,3.48727273 39.8109091,3.71636364 C39.8363636,3.94545455 39.8872727,4.22545455 39.9127273,4.60727273 C39.9127273,4.96363636 39.9381818,5.42181818 39.9381818,5.98181818 Z" id="Shape"></path>
                <path d="M60.0981818,0.407272727 C60.0981818,0.28 59.9963636,0.229090909 59.92,0.229090909 L58.0618182,0.229090909 C57.9345455,0.229090909 57.8836364,0.330909091 57.8836364,0.407272727 L57.8836364,7.25454545 L53.3527273,0.254545455 C53.3272727,0.203636364 53.3018182,0.203636364 53.2254545,0.203636364 L51.4945455,0.203636364 C51.3927273,0.203636364 51.3163636,0.305454545 51.3163636,0.381818182 C51.3163636,4.07272727 51.3163636,7.78909091 51.3163636,11.5054545 C51.3163636,11.6327273 51.4181818,11.6836364 51.4945455,11.6836364 L53.3527273,11.6836364 C53.48,11.6836364 53.5309091,11.5818182 53.5309091,11.5054545 L53.5309091,4.63272727 L58.0618182,11.6581818 C58.0872727,11.7090909 58.1127273,11.7090909 58.1890909,11.7090909 L59.92,11.7090909 C60.0472727,11.7090909 60.0981818,11.6072727 60.0981818,11.5309091 L60.0981818,0.407272727 L60.0981818,0.407272727 Z" id="Path"></path>
                <path d="M47.6509091,0.407272727 C47.6509091,0.28 47.5490909,0.229090909 47.4727273,0.229090909 L45.6145455,0.229090909 C45.4872727,0.229090909 45.4363636,0.330909091 45.4363636,0.407272727 L45.4363636,11.5309091 C45.4363636,11.6581818 45.5381818,11.7090909 45.6145455,11.7090909 L47.4727273,11.7090909 C47.6,11.7090909 47.6509091,11.6072727 47.6509091,11.5309091 L47.6509091,0.407272727 Z" id="Path"></path>
                <path d="M25.48,5.98181818 C25.48,5.44727273 25.48,4.96363636 25.5054545,4.60727273 C25.5309091,4.25090909 25.5563636,3.94545455 25.6072727,3.71636364 C25.76,2.72363636 26.5236364,2.13818182 27.5163636,2.13818182 C28.1527273,2.13818182 28.7127273,2.36727273 29.0945455,2.92727273 C29.2472727,3.15636364 29.3745455,3.41090909 29.4509091,3.74181818 C29.4509091,3.76727273 29.4763636,3.79272727 29.5272727,3.79272727 L31.7163636,3.79272727 C31.7418182,3.79272727 31.7672727,3.76727273 31.7672727,3.74181818 C31.5381818,2.39272727 30.8254545,1.19636364 29.5272727,0.585454545 C28.9418182,0.305454545 28.28,0.152727273 27.5418182,0.152727273 C26.32,0.152727273 25.2763636,0.585454545 24.4363636,1.4 C23.9781818,1.85818182 23.6218182,2.46909091 23.4945455,3.13090909 C23.3672727,3.76727273 23.3163636,4.73454545 23.3163636,5.98181818 C23.3163636,7.22909091 23.3927273,8.19636364 23.4945455,8.83272727 C23.6218182,9.49454545 23.9272727,10.08 24.4363636,10.5636364 C25.2763636,11.4036364 26.32,11.8109091 27.5418182,11.8109091 C28.28,11.8109091 28.9418182,11.6581818 29.5272727,11.3781818 C30.8,10.7927273 31.5127273,9.54545455 31.7672727,8.22181818 C31.7672727,8.19636364 31.7672727,8.17090909 31.7163636,8.17090909 L29.5272727,8.17090909 C29.4763636,8.17090909 29.4763636,8.19636364 29.4509091,8.22181818 C29.3745455,8.52727273 29.2727273,8.80727273 29.0945455,9.03636364 C28.7381818,9.54545455 28.1527273,9.8 27.5163636,9.82545455 C26.5490909,9.82545455 25.7854545,9.24 25.6072727,8.24727273 C25.5563636,8.01818182 25.5309091,7.73818182 25.5054545,7.35636364 C25.48,7 25.48,6.54181818 25.48,5.98181818 Z" id="Path"></path>
                <path d="M2.41818182,0.407272727 C2.41818182,0.28 2.31636364,0.229090909 2.24,0.229090909 L0.381818182,0.229090909 C0.254545455,0.229090909 0.203636364,0.330909091 0.203636364,0.407272727 L0.203636364,11.5309091 C0.203636364,11.6581818 0.305454545,11.7090909 0.381818182,11.7090909 L2.24,11.7090909 C2.36727273,11.7090909 2.41818182,11.6072727 2.41818182,11.5309091 L2.41818182,8.27272727 L3.92,6.49090909 L6.97454545,11.6836364 C7,11.7345455 7.05090909,11.7345455 7.10181818,11.7345455 L9.34181818,11.7345455 C9.44363636,11.7345455 9.46909091,11.6581818 9.41818182,11.5818182 L5.39636364,4.81090909 L9.06181818,0.407272727 C9.13818182,0.305454545 9.11272727,0.254545455 8.98545455,0.254545455 L6.51636364,0.254545455 C6.46545455,0.254545455 6.46545455,0.254545455 6.44,0.28 L2.41818182,5.11636364 L2.41818182,0.407272727 L2.41818182,0.407272727 L2.41818182,0.407272727 Z" id="Path"></path>
                <path d="M15.9345455,9.82545455 C14.8909091,9.82545455 13.9490909,8.85818182 13.9490909,7.71272727 L13.9490909,0.407272727 C13.9490909,0.28 13.8472727,0.229090909 13.7709091,0.229090909 L11.9127273,0.229090909 C11.7854545,0.229090909 11.7345455,0.330909091 11.7345455,0.407272727 L11.7345455,7.66181818 C11.7345455,10.2072727 13.6436364,11.8109091 15.9854545,11.8109091 C18.3272727,11.8109091 20.2363636,10.2072727 20.2363636,7.66181818 L20.2363636,0.407272727 C20.2363636,0.28 20.1345455,0.229090909 20.0581818,0.229090909 L18.2,0.229090909 C18.0727273,0.229090909 18.0218182,0.330909091 18.0218182,0.407272727 L18.0218182,7.71272727 C17.92,8.88363636 16.9781818,9.82545455 15.9345455,9.82545455 Z" id="Path"></path>
            </g>
            <g id="Group" transform="translate(34.872727, 15.781818)">
                <path d="M10.2072727,1.22181818 L10.2072727,2.18909091 L2.11272727,2.18909091 L2.11272727,4.35272727 C2.11272727,6.05818182 1.96,8.62909091 0.992727273,10.3090909 C0.84,10.1309091 0.356363636,9.82545455 0.127272727,9.72363636 C1.01818182,8.17090909 1.09454545,5.95636364 1.09454545,4.35272727 L1.09454545,1.24727273 L5.29454545,1.24727273 C5.19272727,0.967272727 5.04,0.661818182 4.88727273,0.407272727 L5.90545455,0.178181818 C6.10909091,0.509090909 6.33818182,0.916363636 6.46545455,1.27272727 L10.2072727,1.27272727 L10.2072727,1.22181818 Z M7.20363636,7.73818182 L10.2072727,7.73818182 L10.2072727,8.68 L7.20363636,8.68 L7.20363636,10.2327273 L6.18545455,10.2327273 L6.18545455,8.68 L2.39272727,8.68 L2.39272727,7.73818182 L6.18545455,7.73818182 L6.18545455,6.64363636 L4.40363636,6.64363636 C3.86909091,6.64363636 3.43636364,6.69454545 3.36,6.79636364 C3.30909091,6.59272727 3.13090909,6.08363636 3.00363636,5.82909091 C3.20727273,5.77818182 3.38545455,5.54909091 3.61454545,5.19272727 C3.71636364,5.04 3.92,4.70909091 4.14909091,4.25090909 L2.69818182,4.25090909 L2.69818182,3.33454545 L4.58181818,3.33454545 C4.73454545,3.00363636 4.86181818,2.64727273 4.96363636,2.29090909 L6.03272727,2.64727273 C5.93090909,2.87636364 5.85454545,3.10545455 5.72727273,3.33454545 L9.77454545,3.33454545 L9.77454545,4.25090909 L5.24363636,4.25090909 C4.96363636,4.78545455 4.65818182,5.29454545 4.35272727,5.75272727 L6.16,5.75272727 L6.16,4.70909091 L7.17818182,4.70909091 L7.17818182,5.75272727 L9.46909091,5.75272727 L9.46909091,6.66909091 L7.17818182,6.66909091 L7.17818182,7.73818182 L7.20363636,7.73818182 Z" id="Shape"></path>
                <path d="M25.9381818,7.71272727 C25.9381818,8.24727273 25.8363636,8.55272727 25.4290909,8.70545455 C25.0472727,8.88363636 24.4618182,8.90909091 23.5963636,8.88363636 C23.5454545,8.60363636 23.3927273,8.14545455 23.2654545,7.86545455 C23.8763636,7.89090909 24.4618182,7.89090909 24.64,7.86545455 C24.8181818,7.86545455 24.8690909,7.81454545 24.8690909,7.66181818 L24.8690909,4.45454545 L22.5018182,4.45454545 L22.5018182,10.1818182 L21.4581818,10.1818182 L21.4581818,4.45454545 L19.1927273,4.45454545 L19.1927273,8.96 L18.1490909,8.96 L18.1490909,3.46181818 L21.4581818,3.46181818 L21.4581818,1.83272727 C20.1345455,1.90909091 18.8109091,1.93454545 17.5636364,1.96 C17.5636364,1.68 17.4363636,1.27272727 17.3345455,1.04363636 C20.3636364,0.992727273 24.0036364,0.763636364 26.1927273,0.407272727 L26.6,1.34909091 C25.4545455,1.52727273 24.0036364,1.68 22.5018182,1.78181818 L22.5018182,3.46181818 L25.9381818,3.46181818 L25.9381818,7.71272727 L25.9381818,7.71272727 Z" id="Path"></path>
                <path d="M39.7854545,0.585454545 C39.6836364,0.738181818 39.5563636,0.916363636 39.4290909,1.06909091 C40.7781818,2.39272727 42.2545455,3.23272727 43.8836364,3.86909091 C43.6036364,4.09818182 43.3236364,4.48 43.1709091,4.81090909 C42.5854545,4.53090909 42.0254545,4.25090909 41.4909091,3.92 L41.4909091,4.63272727 L36.0181818,4.63272727 L36.0181818,4.07272727 C35.5090909,4.37818182 34.9745455,4.68363636 34.44,4.91272727 C34.2618182,4.63272727 33.9818182,4.25090909 33.7018182,3.99636364 C35.7381818,3.18181818 37.7745455,1.80727273 38.8945455,0.101818182 L39.7854545,0.585454545 Z M35.3818182,5.77818182 L42.2545455,5.77818182 L42.2545455,10.1818182 L41.1854545,10.1818182 L41.1854545,9.67272727 L36.4254545,9.67272727 L36.4254545,10.2327273 L35.3818182,10.2327273 L35.3818182,5.77818182 Z M36.4254545,6.69454545 L36.4254545,8.73090909 L41.1854545,8.73090909 L41.1854545,6.69454545 L36.4254545,6.69454545 Z M41.16,3.69090909 C40.3454545,3.18181818 39.6072727,2.57090909 38.8181818,1.80727273 C38.1818182,2.52 37.4436364,3.15636364 36.6545455,3.69090909 L41.16,3.69090909 Z" id="Shape"></path>
                <path d="M54.4981818,5.77818182 C54.4981818,6.03272727 54.4981818,6.44 54.5490909,6.64363636 C51.4945455,7.15272727 51.0618182,7.22909091 50.7818182,7.38181818 C50.7309091,7.17818182 50.5781818,6.74545455 50.4509091,6.49090909 C50.7054545,6.44 50.96,6.16 51.3163636,5.77818182 C51.52,5.57454545 51.9018182,5.09090909 52.36,4.48 C51.1127273,4.60727273 50.8327273,4.68363636 50.68,4.76 C50.6290909,4.55636364 50.4763636,4.07272727 50.3490909,3.81818182 C50.5781818,3.76727273 50.7563636,3.53818182 51.0109091,3.18181818 C51.2654545,2.85090909 52.08,1.47636364 52.5381818,0.203636364 L53.5054545,0.610909091 C52.9963636,1.70545455 52.36,2.85090909 51.6981818,3.74181818 L52.9454545,3.64 C53.2,3.25818182 53.4545455,2.85090909 53.6581818,2.44363636 L54.4981818,2.95272727 C53.8109091,4.07272727 52.9709091,5.19272727 52.1563636,6.10909091 L54.4981818,5.77818182 Z M50.4254545,8.68 C51.4945455,8.52727273 53.0981818,8.24727273 54.6509091,7.94181818 L54.7272727,8.83272727 C53.2763636,9.13818182 51.7490909,9.41818182 50.6036364,9.64727273 L50.4254545,8.68 Z M60.1236364,2.13818182 C60.1236364,2.13818182 60.1236364,2.49454545 60.1236364,2.62181818 C59.9963636,7.45818182 59.8690909,9.13818182 59.4363636,9.64727273 C59.1818182,9.97818182 58.9018182,10.1054545 58.52,10.1563636 C58.1381818,10.2072727 57.5018182,10.1818182 56.8909091,10.1563636 C56.8654545,9.90181818 56.7381818,9.46909091 56.56,9.18909091 C57.2218182,9.26545455 57.8327273,9.26545455 58.1127273,9.26545455 C58.3163636,9.26545455 58.4436364,9.24 58.5454545,9.08727273 C58.8509091,8.73090909 59.0036364,7.12727273 59.1054545,3.08 L56.1272727,3.08 C55.8727273,3.66545455 55.5672727,4.2 55.2363636,4.63272727 C55.0581818,4.48 54.6254545,4.2 54.3963636,4.07272727 C55.1345455,3.13090909 55.72,1.65454545 56.0763636,0.178181818 L57.0436364,0.356363636 C56.8909091,0.967272727 56.7127273,1.55272727 56.5090909,2.13818182 L60.1236364,2.13818182 Z M57.4254545,7.30545455 C57.0436364,6.64363636 56.1527273,5.65090909 55.3381818,4.96363636 L56.0509091,4.40363636 C56.84,5.06545455 57.7818182,6.00727273 58.1890909,6.66909091 L57.4254545,7.30545455 Z" id="Shape"></path>
            </g>
        </g>
    </g>
</svg>